<?xml version="1.0" encoding="utf-8"?>
<!-- Generator: Adobe Illustrator 24.1.1, SVG Export Plug-In . SVG Version: 6.00 Build 0)  -->
<svg version="1.1" id="Layer_1" xmlns="http://www.w3.org/2000/svg" xmlns:xlink="http://www.w3.org/1999/xlink" x="0px" y="0px"
	 viewBox="0 0 375 375" style="enable-background:new 0 0 375 375;" xml:space="preserve">
<style type="text/css">
	.st0{fill:#FFFFFF;}
	.st1{fill:#F54045;}
	.st2{fill-rule:evenodd;clip-rule:evenodd;fill:none;}
	.st3{fill:#fff;}
</style>
<g>
	<g>
		<polygon class="st0" points="249.87,36.94 125.13,36.94 36.94,125.13 36.94,249.87 125.13,338.06 249.87,338.06 338.06,249.87
			338.06,125.13 		"/>
	</g>
</g>
<polygon class="st1" points="240.66,58.88 134.17,58.88 58.88,134.17 58.88,240.66 134.17,315.96 240.66,315.96 315.96,240.66
	315.96,134.17 "/>
<path class="st0" d="M187.13,219.75c-17.99,0-32.63-14.64-32.63-32.63c0-17.99,14.64-32.63,32.63-32.63
	c17.99,0,32.63,14.64,32.63,32.63C219.75,205.12,205.12,219.75,187.13,219.75z M187.13,137.93c-27.13,0-49.19,22.07-49.19,49.19
	c0,27.13,22.07,49.19,49.19,49.19c27.13,0,49.19-22.07,49.19-49.19C236.32,160,214.25,137.93,187.13,137.93z"/>
<path class="st0" d="M187.13,239.84c-29.07,0-52.72-23.65-52.72-52.72s23.65-52.72,52.72-52.72s52.72,23.65,52.72,52.72
	S216.19,239.84,187.13,239.84z M274.17,194.6l-0.03-0.05c-1.77-2.57-7.92-4.86-9.14-5.29l-0.08-0.03c-3.07-0.93-6.9-2.47-7.76-3.34
	l-0.05-0.05c-1.05-1-1.16-3.21-0.21-4.31l0.04-0.05c0.76-0.95,4.43-2.86,7.39-4.09l0.08-0.03c1.17-0.55,7.07-3.43,8.57-6.16
	l0.03-0.05c1.63-3.2,0.34-8.37-2.61-10.43l-0.05-0.03c-1.47-0.95-4.32-1.43-8.48-1.43c-1.15,0-1.95,0.04-1.99,0.04l-0.08,0.01
	c-0.02,0-2.45,0.24-4.83,0.24c-2.58,0-3.42-0.27-3.62-0.36l-0.06-0.02c-1.36-0.52-2.3-2.52-1.84-3.9l0.02-0.06
	c0.34-1.17,3-4.34,5.26-6.61l0.06-0.06c0.87-0.95,5.22-5.88,5.56-8.97l0.01-0.06c0.28-3.58-2.89-7.86-6.4-8.64l-0.06-0.01
	c-0.3-0.05-0.62-0.08-0.97-0.08c-3.24,0-8.63,2.52-9.23,2.8l-0.07,0.03c-2.36,1.26-6.48,3.11-7.85,3.11h-0.03l-0.09,0.01
	c-1.45,0-3.04-1.46-3.14-2.89l-0.01-0.06c-0.13-1.21,1.11-5.16,2.34-8.12l0.03-0.08c0.44-1.21,2.57-7.42,1.71-10.42l-0.02-0.06
	c-0.99-3.05-4.72-5.62-8.14-5.62c-0.37,0-0.73,0.03-1.08,0.09l-0.06,0.01c-3.05,0.65-7.52,5.46-8.39,6.42l-0.05,0.06
	c-2.03,2.48-4.93,5.43-6.06,5.89l-0.06,0.03c-0.3,0.14-0.66,0.2-1.05,0.2c-1.25,0-2.54-0.71-3.01-1.66l-0.03-0.06
	c-0.58-1.07-0.95-5.19-0.95-8.39l0-0.08c-0.06-1.29-0.47-7.84-2.41-10.28l-0.04-0.05c-1.4-1.64-3.91-2.66-6.53-2.66
	c-1.57,0-2.99,0.37-4.1,1.08l-0.05,0.03c-2.57,1.77-4.86,7.92-5.29,9.14l-0.03,0.08c-0.78,2.57-2.38,6.81-3.34,7.76l-0.05,0.05
	c-0.51,0.54-1.37,0.86-2.31,0.86c-0.79,0-1.52-0.24-2-0.65l-0.05-0.04c-0.95-0.76-2.86-4.43-4.09-7.39l-0.03-0.08
	c-0.55-1.17-3.43-7.07-6.16-8.57l-0.05-0.03c-0.93-0.47-2.06-0.72-3.27-0.72c-2.89,0-5.77,1.34-7.16,3.33l-0.03,0.05
	c-1.7,2.62-1.46,9.18-1.39,10.47l0.01,0.08c0.26,2.67,0.41,7.21-0.12,8.45l-0.02,0.06c-0.41,1.08-1.82,1.96-3.14,1.96
	c-0.27,0-0.53-0.04-0.76-0.12l-0.06-0.02c-1.17-0.34-4.34-3-6.61-5.27l-0.06-0.06c-0.95-0.87-5.88-5.22-8.97-5.56l-0.06-0.01
	c-0.15-0.01-0.3-0.02-0.46-0.02c-3.54,0-7.44,3.06-8.18,6.42l-0.01,0.06c-0.57,3.07,2.17,9.04,2.72,10.2l0.03,0.07
	c1.27,2.37,3.11,6.5,3.11,7.85v0.03l0.01,0.03c0.04,1.45-1.44,3.09-2.89,3.19l-0.06,0.01c-0.05,0.01-0.11,0.01-0.16,0.01
	c-1.67,0-5.76-1.44-7.95-2.34l-0.08-0.03c-0.22-0.08-5.38-1.92-8.69-1.92c-0.67,0-1.24,0.07-1.73,0.21l-0.06,0.02
	c-3.42,1.11-6.16,5.68-5.53,9.22l0.01,0.06c0.65,3.05,5.46,7.52,6.42,8.39l0.06,0.05c2.48,2.03,5.43,4.93,5.89,6.06l0.03,0.06
	c0.59,1.32-0.15,3.41-1.45,4.06l-0.06,0.03c-1.07,0.58-5.19,0.95-8.39,0.95l-0.08,0c-1.29,0.06-7.84,0.47-10.28,2.41l-0.05,0.04
	c-2.73,2.34-3.51,7.6-1.58,10.63l0.03,0.05c1.77,2.57,7.92,4.86,9.14,5.29l0.08,0.03c3.07,0.93,6.91,2.48,7.76,3.34l0.05,0.05
	c1.05,1,1.16,3.21,0.21,4.31l-0.04,0.05c-0.76,0.95-4.43,2.86-7.39,4.09l-0.08,0.03c-1.17,0.55-7.07,3.43-8.57,6.16l-0.03,0.05
	c-1.63,3.2-0.34,8.37,2.61,10.43l0.05,0.04c1.47,0.95,4.32,1.43,8.48,1.43c1.15,0,1.95-0.04,1.98-0.04l0.08-0.01
	c0.02,0,2.45-0.24,4.83-0.24c2.58,0,3.42,0.27,3.62,0.36l0.06,0.02c1.36,0.52,2.3,2.52,1.84,3.9l-0.02,0.06
	c-0.34,1.17-3,4.34-5.27,6.61l-0.06,0.06c-0.87,0.95-5.22,5.88-5.56,8.97l-0.01,0.06c-0.28,3.58,2.89,7.86,6.4,8.64l0.06,0.01
	c0.3,0.05,0.62,0.08,0.97,0.08c3.24,0,8.63-2.52,9.23-2.8l0.07-0.03c2.43-1.3,6.47-3.12,7.85-3.12h0.03l0.09-0.01
	c1.45,0,3.04,1.46,3.14,2.89l0.01,0.06c0.13,1.21-1.11,5.16-2.34,8.12l-0.03,0.08c-0.44,1.21-2.57,7.42-1.71,10.42l0.02,0.06
	c0.99,3.05,4.72,5.62,8.14,5.62c0.37,0,0.73-0.03,1.08-0.09l0.06-0.01c3.05-0.65,7.52-5.46,8.39-6.42l0.05-0.06
	c1.71-2.08,4.81-5.38,6.06-5.89l0.06-0.03c0.3-0.14,0.66-0.2,1.05-0.2c1.25,0,2.54,0.71,3.01,1.66l0.03,0.06
	c0.58,1.07,0.95,5.19,0.95,8.4l0,0.08c0.06,1.29,0.47,7.84,2.41,10.28l0.04,0.05c1.4,1.64,3.91,2.66,6.53,2.66
	c1.58,0,2.99-0.37,4.1-1.08l0.05-0.03c2.57-1.77,4.86-7.92,5.29-9.14l0.03-0.08c0.93-3.07,2.48-6.91,3.34-7.76l0.05-0.05
	c0.51-0.54,1.37-0.86,2.31-0.86c0.79,0,1.52,0.24,2,0.65l0.05,0.04c0.95,0.76,2.86,4.43,4.09,7.39l0.03,0.08
	c0.55,1.17,3.43,7.07,6.16,8.57l0.05,0.03c0.93,0.47,2.06,0.72,3.27,0.72c2.89,0,5.77-1.34,7.16-3.33l0.03-0.05
	c1.7-2.61,1.46-9.18,1.39-10.47l-0.01-0.08c-0.31-3.19-0.36-7.33,0.12-8.45l0.02-0.06c0.41-1.08,1.82-1.96,3.13-1.96
	c0.27,0,0.53,0.04,0.76,0.12l0.06,0.02c1.17,0.34,4.34,3,6.61,5.26l0.06,0.06c0.95,0.87,5.88,5.22,8.97,5.56l0.06,0.01
	c0.15,0.01,0.31,0.02,0.46,0.02c3.54,0,7.43-3.06,8.17-6.42l0.01-0.06c0.57-3.07-2.17-9.04-2.72-10.2l-0.03-0.07
	c-1.27-2.37-3.11-6.5-3.11-7.85v-0.03l-0.01-0.03c-0.04-1.45,1.44-3.09,2.89-3.19l0.06-0.01c0.05-0.01,0.11-0.01,0.17-0.01
	c1.67,0,5.76,1.44,7.95,2.34l0.08,0.03c0.22,0.08,5.37,1.92,8.69,1.92c0.67,0,1.24-0.07,1.73-0.21l0.06-0.02
	c3.42-1.11,6.16-5.68,5.53-9.22l-0.01-0.06c-0.65-3.05-5.46-7.52-6.42-8.38l-0.06-0.05c-2.08-1.7-5.38-4.81-5.89-6.06l-0.03-0.06
	c-0.59-1.33,0.15-3.41,1.45-4.06l0.06-0.03c1.07-0.58,5.19-0.95,8.4-0.95l0.08,0c1.29-0.06,7.84-0.47,10.28-2.41l0.05-0.04
	C275.32,202.9,276.1,197.63,274.17,194.6z"/>
<rect x="99" y="99" class="st2" width="176.25" height="176.25"/>
<path class="st3" d="M258.29,243.19c-0.5,0-0.99,0.05-1.48,0.15c-0.49,0.1-0.96,0.24-1.43,0.43c-0.46,0.19-0.9,0.43-1.31,0.7
	c-0.41,0.28-0.8,0.59-1.15,0.95c-0.35,0.35-0.67,0.74-0.95,1.15c-0.28,0.41-0.51,0.85-0.7,1.31c-0.19,0.46-0.34,0.94-0.43,1.43
	s-0.15,0.98-0.15,1.48c0,0.5,0.05,0.99,0.15,1.48s0.24,0.96,0.43,1.43c0.19,0.46,0.43,0.9,0.7,1.31c0.28,0.41,0.59,0.8,0.95,1.15
	c0.35,0.35,0.74,0.67,1.15,0.95c0.41,0.28,0.85,0.51,1.31,0.7c0.46,0.19,0.94,0.34,1.43,0.43c0.49,0.1,0.98,0.15,1.48,0.15
	s0.99-0.05,1.48-0.15c0.49-0.1,0.96-0.24,1.43-0.43s0.9-0.43,1.31-0.7c0.41-0.28,0.8-0.59,1.15-0.95c0.35-0.35,0.67-0.74,0.95-1.15
	c0.28-0.41,0.51-0.85,0.7-1.31c0.19-0.46,0.34-0.94,0.43-1.43s0.15-0.98,0.15-1.48c0-0.5-0.05-0.99-0.15-1.48
	c-0.1-0.49-0.24-0.96-0.43-1.43s-0.43-0.9-0.7-1.31c-0.28-0.41-0.59-0.8-0.95-1.15c-0.35-0.35-0.74-0.67-1.15-0.95
	c-0.41-0.28-0.85-0.51-1.31-0.7c-0.46-0.19-0.94-0.34-1.43-0.43S258.79,243.19,258.29,243.19z"/>
</svg>
